<?xml version="1.0" encoding="UTF-8" standalone="no"?>
<!-- Created with Inkscape (http://www.inkscape.org/) -->

<svg
   xmlns:dc="http://purl.org/dc/elements/1.1/"
   xmlns:cc="http://creativecommons.org/ns#"
   xmlns:rdf="http://www.w3.org/1999/02/22-rdf-syntax-ns#"
   xmlns:svg="http://www.w3.org/2000/svg"
   xmlns="http://www.w3.org/2000/svg"
   xmlns:sodipodi="http://sodipodi.sourceforge.net/DTD/sodipodi-0.dtd"
   xmlns:inkscape="http://www.inkscape.org/namespaces/inkscape"
   version="1.1"
   id="svg2"
   width="32"
   height="32"
   viewBox="0 0 32 32"
   sodipodi:docname="FurAffinity.svg"
   inkscape:version="0.92.2 2405546, 2018-03-11">
  <metadata
     id="metadata8">
    <rdf:RDF>
      <cc:Work
         rdf:about="">
        <dc:format>image/svg+xml</dc:format>
        <dc:type
           rdf:resource="http://purl.org/dc/dcmitype/StillImage" />
        <dc:title></dc:title>
        <cc:license
           rdf:resource="http://www.furaffinity.net/" />
      </cc:Work>
    </rdf:RDF>
  </metadata>
  <defs
     id="defs6" />
  <sodipodi:namedview
     pagecolor="#ffffff"
     bordercolor="#666666"
     borderopacity="1"
     objecttolerance="10"
     gridtolerance="10"
     guidetolerance="10"
     inkscape:pageopacity="0"
     inkscape:pageshadow="2"
     inkscape:window-width="1920"
     inkscape:window-height="1016"
     id="namedview4"
     showgrid="false"
     inkscape:zoom="19.666666"
     inkscape:cx="19.658006"
     inkscape:cy="16.319159"
     inkscape:window-x="0"
     inkscape:window-y="27"
     inkscape:window-maximized="1"
     inkscape:current-layer="svg2"
     units="px" />
  <g
     id="g817"
     transform="matrix(0.18061496,0,0,0.18061496,-0.32565739,27.596082)">
    <path
       inkscape:connector-curvature="0"
       id="path819"
       d="M 5.8917515,-10.88484 4.7053277,-10.99319 4.4913421,-33.10803 C 4.2337098,-59.733641 4.3841964,-66.035308 5.3975518,-71.055793 6.2787325,-75.421442 7.0314358,-77.58048 9.4002016,-82.536904 15.690927,-95.699667 27.562539,-105.03801 42.02603,-108.20075 c 2.438891,-0.53331 4.030822,-0.61498 14.813288,-0.75996 6.644406,-0.0893 23.438792,-0.065 37.320856,0.054 l 25.240116,0.21646 v 0.81034 c 0,0.4457 -0.30823,2.66276 -0.68496,4.92681 -1.5983,9.605366 -1.62419,10.205111 -0.46559,10.785363 0.3955,0.198074 3.82557,1.274224 7.62238,2.391444 9.81763,2.888868 9.23689,2.617827 9.45239,4.411557 0.0981,0.816854 0.17956,4.882898 0.18093,9.035652 l 0.002,7.550462 3.0921,8.63e-4 c 1.70065,5.76e-4 5.32487,0.08558 8.05382,0.189093 l 4.96174,0.188212 -0.003,3.04682 c -0.001,1.675751 -0.13518,5.23224 -0.297,7.903309 -0.16182,2.671072 -0.22463,4.92608 -0.13957,5.011134 0.085,0.08505 4.13415,-0.0637 8.998,-0.330558 4.86386,-0.266863 9.45819,-0.483247 10.20964,-0.480856 l 1.36637,0.0044 -0.002,1.366274 c -0.007,4.761451 -4.31305,15.648391 -8.56092,21.644651 -2.48022,3.50105 -7.78295,8.80378 -11.28399,11.28399 -4.62994,3.27995 -10.83245,6.04883 -16.97057,7.57587 -1.51429,0.37673 -4.17158,0.49409 -13.98143,0.6175 l -12.11179,0.15236 -0.16352,-4.27785 c -0.0899,-2.35282 -0.0236,-11.95054 0.14729,-21.32828 0.42511,-23.321364 0.1473,-26.158937 -3.23071,-32.99835 -3.42157,-6.927639 -10.646441,-11.611471 -20.682412,-13.408273 -9.28397,-1.662167 -28.076668,-0.897079 -39.144792,1.593661 -4.920192,1.107225 -6.29989,1.580839 -6.791674,2.331398 -0.498195,0.760342 -2.111319,12.600649 -2.119934,15.560275 -0.0075,2.57698 0.182393,2.66057 3.958105,1.742351 14.022477,-3.410149 32.733624,-3.65789 38.824377,-0.51405 1.256299,0.648459 2.982513,2.38699 3.609728,3.635483 0.729328,1.451759 1.350347,5.125115 1.350347,7.987379 v 2.701006 l -4.242641,0.17058 c -12.173862,0.48946 -23.533427,2.83556 -30.71738,6.34409 -6.216231,3.0359 -11.793163,8.66832 -14.505128,14.64943 -2.050962,4.5233 -3.037244,11.44645 -2.13998,15.02144 l 0.180532,0.71929 -13.046742,-0.0503 c -7.175707,-0.0276 -13.5806314,-0.099 -14.2331645,-0.15859 z"
       style="fill:#000000;fill-opacity:1;stroke:none;stroke-width:0;stroke-miterlimit:4;stroke-dasharray:none;stroke-opacity:1" />
    <path
       sodipodi:nodetypes="ccscscsccccsscscscc"
       inkscape:connector-curvature="0"
       id="path821"
       d="m 157.53738,-63.815405 c 0.32704,-8.442073 0.43898,-9.770215 -0.0208,-10.054187 -0.21255,-0.13126 -3.68883,-0.171911 -7.78723,-0.245704 -4.0984,-0.07379 -7.82792,-0.688415 -7.94601,-0.806508 -0.11809,-0.118092 -0.2981,-2.812432 -0.37777,-6.846818 -0.12732,-6.447384 -0.20365,-8.169205 -0.63059,-8.48117 -0.26716,-0.195208 -3.51026,-1.442981 -7.11901,-2.50916 -3.60875,-1.066179 -5.77035,-1.370441 -6.56135,-1.642917 l -1.86965,-1.214503 -0.81481,-1.861812 c 0.0537,-3.039236 1.79598,-10.652266 2.30985,-11.166346 0.2434,-0.24349 5.73541,-0.57187 24.31275,-0.6408 29.54499,-0.10963 26.21924,-0.63881 25.33357,4.03102 -1.93435,10.199194 -3.45362,23.882468 -3.48811,31.415635 -0.0124,2.70394 -0.14239,6.413077 -0.25784,8.926141 -0.19133,4.164852 -0.26366,4.689005 -0.81734,5.13735 -0.70561,0.571368 -4.44158,1.495643 -10.6789,1.390358 l -3.72351,-0.06285 z"
       style="fill:#000000;fill-opacity:1;stroke:#000000;stroke-width:0;stroke-miterlimit:4;stroke-dasharray:none;stroke-opacity:1" />
    <path
       inkscape:connector-curvature="0"
       id="path823"
       d="m 58.381023,-12.34237 c -1.762758,-2.76352 -1.795357,-2.87586 -1.811721,-6.24363 -0.01414,-2.90979 0.05029,-3.29799 0.801849,-4.83156 2.756897,-5.62551 10.368246,-8.63831 23.510827,-9.3063 l 3.620457,-0.18401 0.190728,5.2655 c 0.104901,2.89602 0.190729,7.29607 0.190729,9.77788 v 4.5124 l -1.182146,0.53307 c -0.65018,0.29319 -1.569925,0.89531 -2.043876,1.33805 l -0.86173,0.80498 -10.684046,-0.0125 -10.684047,-0.0125 z"
       style="fill:#000000;fill-opacity:1;stroke:#000000;stroke-width:0;stroke-miterlimit:4;stroke-dasharray:none;stroke-opacity:1" />
  </g>
</svg>
